<svg id="mermaid-1784597432051-339lqi9d5" width="100%" xmlns="http://www.w3.org/2000/svg" style="max-width: 2899.81689453125px;" viewBox="-8 -8 2899.81689453125 665.1500244140625" role="graphics-document document" aria-roledescription="flowchart-v2"><style>#mermaid-1784597432051-339lqi9d5{font-family:"trebuchet ms",verdana,arial,sans-serif;font-size:16px;fill:#333333;}#mermaid-1784597432051-339lqi9d5 .error-icon{fill:#10b981;}#mermaid-1784597432051-339lqi9d5 .error-text{fill:#ef467e;stroke:#ef467e;}#mermaid-1784597432051-339lqi9d5 .edge-thickness-normal{stroke-width:2px;}#mermaid-1784597432051-339lqi9d5 .edge-thickness-thick{stroke-width:3.5px;}#mermaid-1784597432051-339lqi9d5 .edge-pattern-solid{stroke-dasharray:0;}#mermaid-1784597432051-339lqi9d5 .edge-pattern-dashed{stroke-dasharray:3;}#mermaid-1784597432051-339lqi9d5 .edge-pattern-dotted{stroke-dasharray:2;}#mermaid-1784597432051-339lqi9d5 .marker{fill:#333333;stroke:#333333;}#mermaid-1784597432051-339lqi9d5 .marker.cross{stroke:#333333;}#mermaid-1784597432051-339lqi9d5 svg{font-family:"trebuchet ms",verdana,arial,sans-serif;font-size:16px;}#mermaid-1784597432051-339lqi9d5 .label{font-family:"trebuchet ms",verdana,arial,sans-serif;color:#333333;}#mermaid-1784597432051-339lqi9d5 .cluster-label text{fill:#333333;}#mermaid-1784597432051-339lqi9d5 .cluster-label span,#mermaid-1784597432051-339lqi9d5 p{color:#333333;}#mermaid-1784597432051-339lqi9d5 .label text,#mermaid-1784597432051-339lqi9d5 span,#mermaid-1784597432051-339lqi9d5 p{fill:#333333;color:#333333;}#mermaid-1784597432051-339lqi9d5 .node rect,#mermaid-1784597432051-339lqi9d5 .node circle,#mermaid-1784597432051-339lqi9d5 .node ellipse,#mermaid-1784597432051-339lqi9d5 .node polygon,#mermaid-1784597432051-339lqi9d5 .node path{fill:#ECECFF;stroke:#9370DB;stroke-width:1px;}#mermaid-1784597432051-339lqi9d5 .flowchart-label text{text-anchor:middle;}#mermaid-1784597432051-339lqi9d5 .node .label{text-align:center;}#mermaid-1784597432051-339lqi9d5 .node.clickable{cursor:pointer;}#mermaid-1784597432051-339lqi9d5 .arrowheadPath{fill:#000000;}#mermaid-1784597432051-339lqi9d5 .edgePath .path{stroke:#333333;stroke-width:2.0px;}#mermaid-1784597432051-339lqi9d5 .flowchart-link{stroke:#333333;fill:none;}#mermaid-1784597432051-339lqi9d5 .edgeLabel{background-color:#ffffde;text-align:center;}#mermaid-1784597432051-339lqi9d5 .edgeLabel rect{opacity:0.5;background-color:#ffffde;fill:#ffffde;}#mermaid-1784597432051-339lqi9d5 .labelBkg{background-color:rgba(255, 255, 222, 0.5);}#mermaid-1784597432051-339lqi9d5 .cluster rect{fill:#f8fafc;stroke:#9370DB;stroke-width:1px;}#mermaid-1784597432051-339lqi9d5 .cluster text{fill:#333333;}#mermaid-1784597432051-339lqi9d5 .cluster span,#mermaid-1784597432051-339lqi9d5 p{color:#333333;}#mermaid-1784597432051-339lqi9d5 div.mermaidTooltip{position:absolute;text-align:center;max-width:200px;padding:2px;font-family:"trebuchet ms",verdana,arial,sans-serif;font-size:12px;background:#10b981;border:1px solid hsl(160.1183431953, 44.07960199%, 29.4117647059%);border-radius:2px;pointer-events:none;z-index:100;}#mermaid-1784597432051-339lqi9d5 .flowchartTitleText{text-anchor:middle;font-size:18px;fill:#333333;}#mermaid-1784597432051-339lqi9d5 :root{--mermaid-font-family:"trebuchet ms",verdana,arial,sans-serif;}</style><g><marker id="mermaid-1784597432051-339lqi9d5_flowchart-pointEnd" class="marker flowchart" viewBox="0 0 10 10" refX="6" refY="5" markerUnits="userSpaceOnUse" markerWidth="12" markerHeight="12" orient="auto"><path d="M 0 0 L 10 5 L 0 10 z" class="arrowMarkerPath" style="stroke-width: 1px; stroke-dasharray: 1px, 0px;"></path></marker><marker id="mermaid-1784597432051-339lqi9d5_flowchart-pointStart" class="marker flowchart" viewBox="0 0 10 10" refX="4.5" refY="5" markerUnits="userSpaceOnUse" markerWidth="12" markerHeight="12" orient="auto"><path d="M 0 5 L 10 10 L 10 0 z" class="arrowMarkerPath" style="stroke-width: 1px; stroke-dasharray: 1px, 0px;"></path></marker><marker id="mermaid-1784597432051-339lqi9d5_flowchart-circleEnd" class="marker flowchart" viewBox="0 0 10 10" refX="11" refY="5" markerUnits="userSpaceOnUse" markerWidth="11" markerHeight="11" orient="auto"><circle cx="5" cy="5" r="5" class="arrowMarkerPath" style="stroke-width: 1px; stroke-dasharray: 1px, 0px;"></circle></marker><marker id="mermaid-1784597432051-339lqi9d5_flowchart-circleStart" class="marker flowchart" viewBox="0 0 10 10" refX="-1" refY="5" markerUnits="userSpaceOnUse" markerWidth="11" markerHeight="11" orient="auto"><circle cx="5" cy="5" r="5" class="arrowMarkerPath" style="stroke-width: 1px; stroke-dasharray: 1px, 0px;"></circle></marker><marker id="mermaid-1784597432051-339lqi9d5_flowchart-crossEnd" class="marker cross flowchart" viewBox="0 0 11 11" refX="12" refY="5.2" markerUnits="userSpaceOnUse" markerWidth="11" markerHeight="11" orient="auto"><path d="M 1,1 l 9,9 M 10,1 l -9,9" class="arrowMarkerPath" style="stroke-width: 2px; stroke-dasharray: 1px, 0px;"></path></marker><marker id="mermaid-1784597432051-339lqi9d5_flowchart-crossStart" class="marker cross flowchart" viewBox="0 0 11 11" refX="-1" refY="5.2" markerUnits="userSpaceOnUse" markerWidth="11" markerHeight="11" orient="auto"><path d="M 1,1 l 9,9 M 10,1 l -9,9" class="arrowMarkerPath" style="stroke-width: 2px; stroke-dasharray: 1px, 0px;"></path></marker><g class="root"><g class="clusters"><g class="cluster default flowchart-label" id="OpenAI"><rect style="" rx="0" ry="0" x="1197.7666778564453" y="492.5000228881836" width="276.6999969482422" height="136.1999969482422"></rect><g class="cluster-label" transform="translate(1308.9833450317383, 492.5000228881836)"><foreignObject width="54.26666259765625" height="25.600006103515625"><div style="display: inline-block; white-space: nowrap;" xmlns="http://www.w3.org/1999/xhtml"><span class="nodeLabel">OpenAI</span></div></foreignObject></g></g><g class="cluster default flowchart-label" id="Pages"><rect style="" rx="0" ry="0" x="909.4833374023438" y="86.85000228881836" width="1974.3333435058594" height="279.9000244140625"></rect><g class="cluster-label" transform="translate(1835.2750091552734, 86.85000228881836)"><foreignObject width="122.75" height="25.600006103515625"><div style="display: inline-block; white-space: nowrap;" xmlns="http://www.w3.org/1999/xhtml"><span class="nodeLabel">Cloudflare Pages</span></div></foreignObject></g></g><g class="cluster default flowchart-label" id="Extension"><rect style="" rx="0" ry="0" x="0" y="0" width="859.4833374023438" height="209.00000762939453"></rect><g class="cluster-label" transform="translate(326.55833435058594, 0)"><foreignObject width="206.36666870117188" height="25.600006103515625"><div style="display: inline-block; white-space: nowrap;" xmlns="http://www.w3.org/1999/xhtml"><span class="nodeLabel">Unpacked Chrome extension</span></div></foreignObject></g></g><g class="cluster default flowchart-label" id="Browser"><rect style="" rx="0" ry="0" x="2203.6000061035156" y="502.95002365112305" width="680.2166748046875" height="146.20000076293945"></rect><g class="cluster-label" transform="translate(2484.5583419799805, 502.95002365112305)"><foreignObject width="118.30000305175781" height="25.600006103515625"><div style="display: inline-block; white-space: nowrap;" xmlns="http://www.w3.org/1999/xhtml"><span class="nodeLabel">Teacher browser</span></div></foreignObject></g></g></g><g class="edgePaths"><path d="M1858.283,564.65L1890.581,564.65C1922.878,564.65,1987.472,564.65,2045.025,564.65C2102.578,564.65,2153.089,564.65,2186.186,564.65C2219.283,564.65,2234.967,564.65,2242.808,564.65L2250.65,564.65" id="L-Teacher-Page-0" class=" edge-thickness-normal edge-pattern-solid flowchart-link LS-Teacher LE-Page" style="fill:none;" marker-end="url(#mermaid-1784597432051-339lqi9d5_flowchart-pointEnd)"></path><path d="M2440.883,571.774L2460.95,573.32C2481.017,574.866,2521.15,577.958,2558.146,579.504C2595.142,581.05,2629,581.05,2645.929,581.05L2662.858,581.05" id="L-Page-Fixtures-0" class=" edge-thickness-normal edge-pattern-solid flowchart-link LS-Page LE-Fixtures" style="fill:none;" marker-end="url(#mermaid-1784597432051-339lqi9d5_flowchart-pointEnd)"></path><path d="M277.5,120.9L281.667,120.9C285.833,120.9,294.167,120.9,301.617,120.9C309.067,120.9,315.633,120.9,318.917,120.9L322.2,120.9" id="L-Settings-Sites-0" class=" edge-thickness-normal edge-pattern-solid flowchart-link LS-Settings LE-Sites" style="fill:none;" marker-end="url(#mermaid-1784597432051-339lqi9d5_flowchart-pointEnd)"></path><path d="M566.683,120.9L570.85,120.9C575.017,120.9,583.35,120.9,590.8,120.9C598.25,120.9,604.817,120.9,608.1,120.9L611.383,120.9" id="L-Sites-Summary-0" class=" edge-thickness-normal edge-pattern-solid flowchart-link LS-Sites LE-Summary" style="fill:none;" marker-end="url(#mermaid-1784597432051-339lqi9d5_flowchart-pointEnd)"></path><path d="M2440.883,554.203L2460.95,551.936C2481.017,549.669,2521.15,545.134,2571.101,496.593C2621.052,448.051,2680.821,355.502,2710.705,309.227L2740.59,262.952" id="L-Page-Static-0" class=" edge-thickness-normal edge-pattern-solid flowchart-link LS-Page LE-Static" style="fill:none;" marker-end="url(#mermaid-1784597432051-339lqi9d5_flowchart-pointEnd)"></path><path d="M826.198,154L831.746,155.825C837.293,157.65,848.388,161.3,858.102,163.125C867.817,164.95,876.15,164.95,884.483,164.95C892.817,164.95,901.15,164.95,908.6,164.95C916.05,164.95,922.617,164.95,925.9,164.95L929.183,164.95" id="L-Summary-Ingest-0" class=" edge-thickness-normal edge-pattern-solid flowchart-link LS-Summary LE-Ingest" style="fill:none;" marker-end="url(#mermaid-1784597432051-339lqi9d5_flowchart-pointEnd)"></path><path d="M1109.297,185.25L1119.875,188.4C1130.453,191.55,1151.61,197.85,1166.355,201C1181.1,204.15,1189.433,204.15,1196.883,204.15C1204.333,204.15,1210.9,204.15,1214.183,204.15L1217.467,204.15" id="L-Ingest-Aggregate-0" class=" edge-thickness-normal edge-pattern-solid flowchart-link LS-Ingest LE-Aggregate" style="fill:none;" marker-end="url(#mermaid-1784597432051-339lqi9d5_flowchart-pointEnd)"></path><path d="M1449.467,204.15L1453.633,204.15C1457.8,204.15,1466.133,204.15,1492.769,204.15C1519.406,204.15,1564.344,204.15,1610.108,204.15C1655.872,204.15,1702.461,204.15,1725.756,204.15L1749.05,204.15" id="L-Aggregate-Classes-0" class=" edge-thickness-normal edge-pattern-solid flowchart-link LS-Aggregate LE-Classes" style="fill:none;" marker-end="url(#mermaid-1784597432051-339lqi9d5_flowchart-pointEnd)"></path><path d="M1890.283,205.674L1917.247,206.278C1944.211,206.882,1998.139,208.091,2050.358,208.696C2102.578,209.3,2153.089,209.3,2200.768,264.324C2248.448,319.347,2293.296,429.395,2315.72,484.418L2338.144,539.442" id="L-Classes-Page-0" class=" edge-thickness-normal edge-pattern-solid flowchart-link LS-Classes LE-Page" style="fill:none;" marker-end="url(#mermaid-1784597432051-339lqi9d5_flowchart-pointEnd)"></path><path d="M2335.674,544.35L2313.662,509.283C2291.649,474.217,2247.625,404.083,2200.357,369.017C2153.089,333.95,2102.578,333.95,2052.937,329.789C2003.297,325.629,1954.527,317.308,1930.143,313.147L1905.758,308.987" id="L-Page-Generate-0" class=" edge-thickness-normal edge-pattern-solid flowchart-link LS-Page LE-Generate" style="fill:none;" marker-end="url(#mermaid-1784597432051-339lqi9d5_flowchart-pointEnd)"></path><path d="M1744.1,305.012L1721.631,307.96C1699.161,310.908,1654.222,316.804,1609.283,361.669C1564.344,406.533,1519.406,490.367,1485.864,531.195C1452.322,572.023,1430.178,569.846,1419.105,568.758L1408.033,567.669" id="L-Generate-Model-0" class=" edge-thickness-normal edge-pattern-solid flowchart-link LS-Generate LE-Model" style="fill:none;" marker-end="url(#mermaid-1784597432051-339lqi9d5_flowchart-pointEnd)"></path><path d="M1402.758,553.616L1414.71,552.363C1426.661,551.11,1450.564,548.605,1484.985,500.644C1519.406,452.683,1564.344,359.267,1608.408,315.488C1652.472,271.709,1695.66,277.568,1717.254,280.497L1738.848,283.427" id="L-Model-Generate-0" class=" edge-thickness-normal edge-pattern-solid flowchart-link LS-Model LE-Generate" style="fill:none;" marker-end="url(#mermaid-1784597432051-339lqi9d5_flowchart-pointEnd)"></path><path d="M1900.533,294.75L1925.789,294.75C1951.044,294.75,2001.556,294.75,2052.067,294.75C2102.578,294.75,2153.089,294.75,2200.248,335.572C2247.406,376.393,2291.212,458.037,2313.116,498.858L2335.019,539.68" id="L-Generate-Page-0" class=" edge-thickness-normal edge-pattern-solid flowchart-link LS-Generate LE-Page" style="fill:none;" marker-end="url(#mermaid-1784597432051-339lqi9d5_flowchart-pointEnd)"></path><path d="M791.882,87.8L803.149,82.175C814.416,76.55,836.95,65.3,852.383,59.675C867.817,54.05,876.15,54.05,884.483,54.05C892.817,54.05,901.15,54.05,927.257,54.05C953.364,54.05,997.244,54.05,1041.125,54.05C1085.006,54.05,1128.886,54.05,1154.993,54.05C1181.1,54.05,1189.433,54.05,1216.658,54.05C1243.883,54.05,1290,54.05,1336.117,54.05C1382.233,54.05,1428.35,54.05,1473.878,54.05C1519.406,54.05,1564.344,54.05,1622.319,54.05C1680.294,54.05,1751.306,54.05,1825.103,54.05C1898.9,54.05,1975.483,54.05,2039.031,54.05C2102.578,54.05,2153.089,54.05,2200.069,111.174C2247.048,168.299,2290.497,282.547,2312.221,339.672L2333.945,396.796" id="L-Summary-Contracts-0" class=" edge-thickness-normal edge-pattern-dotted flowchart-link LS-Summary LE-Contracts" style="fill:none;stroke-width:2px;stroke-dasharray:3;" marker-end="url(#mermaid-1784597432051-339lqi9d5_flowchart-pointEnd)"></path><path d="M1119.607,144.65L1128.467,142.358C1137.327,140.067,1155.047,135.483,1168.073,133.192C1181.1,130.9,1189.433,130.9,1216.658,130.9C1243.883,130.9,1290,130.9,1336.117,130.9C1382.233,130.9,1428.35,130.9,1473.878,130.9C1519.406,130.9,1564.344,130.9,1622.319,130.9C1680.294,130.9,1751.306,130.9,1825.103,130.9C1898.9,130.9,1975.483,130.9,2039.031,130.9C2102.578,130.9,2153.089,130.9,2199.472,175.244C2245.856,219.588,2288.111,308.277,2309.239,352.621L2330.367,396.965" id="L-Ingest-Contracts-0" class=" edge-thickness-normal edge-pattern-dotted flowchart-link LS-Ingest LE-Contracts" style="fill:none;stroke-width:2px;stroke-dasharray:3;" marker-end="url(#mermaid-1784597432051-339lqi9d5_flowchart-pointEnd)"></path><path d="M1857.906,274.45L1890.266,255.992C1922.626,237.533,1987.346,200.617,2044.962,182.158C2102.578,163.7,2153.089,163.7,2199.118,202.596C2245.147,241.492,2286.694,319.283,2307.468,358.179L2328.242,397.075" id="L-Generate-Contracts-0" class=" edge-thickness-normal edge-pattern-dotted flowchart-link LS-Generate LE-Contracts" style="fill:none;stroke-width:2px;stroke-dasharray:3;" marker-end="url(#mermaid-1784597432051-339lqi9d5_flowchart-pointEnd)"></path></g><g class="edgeLabels"><g class="edgeLabel"><g class="label" transform="translate(0, 0)"><foreignObject width="0" height="0"><div style="display: inline-block; white-space: nowrap;" xmlns="http://www.w3.org/1999/xhtml"><span class="edgeLabel"></span></div></foreignObject></g></g><g class="edgeLabel" transform="translate(2561.2833404541016, 581.0500259399414)"><g class="label" transform="translate(-68.05000305175781, -12.800003051757812)"><foreignObject width="136.10000610351562" height="25.600006103515625"><div style="display: inline-block; white-space: nowrap;" xmlns="http://www.w3.org/1999/xhtml"><span class="edgeLabel">instant default view</span></div></foreignObject></g></g><g class="edgeLabel"><g class="label" transform="translate(0, 0)"><foreignObject width="0" height="0"><div style="display: inline-block; white-space: nowrap;" xmlns="http://www.w3.org/1999/xhtml"><span class="edgeLabel"></span></div></foreignObject></g></g><g class="edgeLabel"><g class="label" transform="translate(0, 0)"><foreignObject width="0" height="0"><div style="display: inline-block; white-space: nowrap;" xmlns="http://www.w3.org/1999/xhtml"><span class="edgeLabel"></span></div></foreignObject></g></g><g class="edgeLabel"><g class="label" transform="translate(0, 0)"><foreignObject width="0" height="0"><div style="display: inline-block; white-space: nowrap;" xmlns="http://www.w3.org/1999/xhtml"><span class="edgeLabel"></span></div></foreignObject></g></g><g class="edgeLabel"><g class="label" transform="translate(0, 0)"><foreignObject width="0" height="0"><div style="display: inline-block; white-space: nowrap;" xmlns="http://www.w3.org/1999/xhtml"><span class="edgeLabel"></span></div></foreignObject></g></g><g class="edgeLabel"><g class="label" transform="translate(0, 0)"><foreignObject width="0" height="0"><div style="display: inline-block; white-space: nowrap;" xmlns="http://www.w3.org/1999/xhtml"><span class="edgeLabel"></span></div></foreignObject></g></g><g class="edgeLabel"><g class="label" transform="translate(0, 0)"><foreignObject width="0" height="0"><div style="display: inline-block; white-space: nowrap;" xmlns="http://www.w3.org/1999/xhtml"><span class="edgeLabel"></span></div></foreignObject></g></g><g class="edgeLabel" transform="translate(2052.0666732788086, 209.3000144958496)"><g class="label" transform="translate(-126.53333282470703, -12.800003051757812)"><foreignObject width="253.06666564941406" height="25.600006103515625"><div style="display: inline-block; white-space: nowrap;" xmlns="http://www.w3.org/1999/xhtml"><span class="edgeLabel">temporary class list + feature vector</span></div></foreignObject></g></g><g class="edgeLabel" transform="translate(2052.0666732788086, 333.95002365112305)"><g class="label" transform="translate(-101.40833282470703, -12.800003051757812)"><foreignObject width="202.81666564941406" height="25.600006103515625"><div style="display: inline-block; white-space: nowrap;" xmlns="http://www.w3.org/1999/xhtml"><span class="edgeLabel">selected class feature vector</span></div></foreignObject></g></g><g class="edgeLabel" transform="translate(1609.2833404541016, 322.70002365112305)"><g class="label" transform="translate(-109.81666564941406, -12.800003051757812)"><foreignObject width="219.63333129882812" height="25.600006103515625"><div style="display: inline-block; white-space: nowrap;" xmlns="http://www.w3.org/1999/xhtml"><span class="edgeLabel">server-side OPENAI_API_KEY</span></div></foreignObject></g></g><g class="edgeLabel" transform="translate(1609.2833404541016, 265.85001373291016)"><g class="label" transform="translate(-98.28333282470703, -12.800003051757812)"><foreignObject width="196.56666564941406" height="25.600006103515625"><div style="display: inline-block; white-space: nowrap;" xmlns="http://www.w3.org/1999/xhtml"><span class="edgeLabel">structured five-minute script</span></div></foreignObject></g></g><g class="edgeLabel"><g class="label" transform="translate(0, 0)"><foreignObject width="0" height="0"><div style="display: inline-block; white-space: nowrap;" xmlns="http://www.w3.org/1999/xhtml"><span class="edgeLabel"></span></div></foreignObject></g></g><g class="edgeLabel" transform="translate(1336.1166763305664, 54.04999923706055)"><g class="label" transform="translate(-31.574996948242188, -12.800003051757812)"><foreignObject width="63.149993896484375" height="25.600006103515625"><div style="display: inline-block; white-space: nowrap;" xmlns="http://www.w3.org/1999/xhtml"><span class="edgeLabel">validates</span></div></foreignObject></g></g><g class="edgeLabel" transform="translate(1609.2833404541016, 130.90000534057617)"><g class="label" transform="translate(-31.574996948242188, -12.800003051757812)"><foreignObject width="63.149993896484375" height="25.600006103515625"><div style="display: inline-block; white-space: nowrap;" xmlns="http://www.w3.org/1999/xhtml"><span class="edgeLabel">validates</span></div></foreignObject></g></g><g class="edgeLabel" transform="translate(2052.0666732788086, 163.70000839233398)"><g class="label" transform="translate(-31.574996948242188, -12.800003051757812)"><foreignObject width="63.149993896484375" height="25.600006103515625"><div style="display: inline-block; white-space: nowrap;" xmlns="http://www.w3.org/1999/xhtml"><span class="edgeLabel">validates</span></div></foreignObject></g></g></g><g class="nodes"><g class="node default default flowchart-label" id="flowchart-Model-66" transform="translate(1336.1166763305664, 560.6000213623047)"><rect class="basic label-container" style="" rx="0" ry="0" x="-66.64167022705078" y="-33.099998474121094" width="133.28334045410156" height="66.19999694824219"></rect><g class="label" style="" transform="translate(-59.14167022705078, -25.599998474121094)"><rect></rect><foreignObject width="118.28334045410156" height="51.19999694824219"><div style="display: inline-block; white-space: nowrap;" xmlns="http://www.w3.org/1999/xhtml"><span class="nodeLabel">Responses API<br/>structured JSON</span></div></foreignObject></g></g><g class="node default default flowchart-label" id="flowchart-Static-61" transform="translate(2756.5750122070312, 238.20001602172852)"><rect class="basic label-container" style="" rx="0" ry="0" x="-102.24166870117188" y="-20.300003051757812" width="204.48333740234375" height="40.600006103515625"></rect><g class="label" style="" transform="translate(-94.74166870117188, -12.800003051757812)"><rect></rect><foreignObject width="189.48333740234375" height="25.600006103515625"><div style="display: inline-block; white-space: nowrap;" xmlns="http://www.w3.org/1999/xhtml"><span class="nodeLabel">Static teacher-page assets</span></div></foreignObject></g></g><g class="node default default flowchart-label" id="flowchart-Ingest-62" transform="translate(1041.1250076293945, 164.95000839233398)"><rect class="basic label-container" style="" rx="0" ry="0" x="-106.64167022705078" y="-20.300003051757812" width="213.28334045410156" height="40.600006103515625"></rect><g class="label" style="" transform="translate(-99.14167022705078, -12.800003051757812)"><rect></rect><foreignObject width="198.28334045410156" height="25.600006103515625"><div style="display: inline-block; white-space: nowrap;" xmlns="http://www.w3.org/1999/xhtml"><span class="nodeLabel">POST /api/class-summaries</span></div></foreignObject></g></g><g class="node default default flowchart-label" id="flowchart-Aggregate-63" transform="translate(1336.1166763305664, 204.15000915527344)"><rect class="basic label-container" style="" rx="0" ry="0" x="-113.3499984741211" y="-33.099998474121094" width="226.6999969482422" height="66.19999694824219"></rect><g class="label" style="" transform="translate(-105.8499984741211, -25.599998474121094)"><rect></rect><foreignObject width="211.6999969482422" height="51.19999694824219"><div style="display: inline-block; white-space: nowrap;" xmlns="http://www.w3.org/1999/xhtml"><span class="nodeLabel">Runtime-only class aggregate<br/>(no DB · no auth)</span></div></foreignObject></g></g><g class="node default default flowchart-label" id="flowchart-Classes-64" transform="translate(1822.3166732788086, 204.15000915527344)"><rect class="basic label-container" style="" rx="0" ry="0" x="-67.96666717529297" y="-20.300003051757812" width="135.93333435058594" height="40.600006103515625"></rect><g class="label" style="" transform="translate(-60.46666717529297, -12.800003051757812)"><rect></rect><foreignObject width="120.93333435058594" height="25.600006103515625"><div style="display: inline-block; white-space: nowrap;" xmlns="http://www.w3.org/1999/xhtml"><span class="nodeLabel">GET /api/classes</span></div></foreignObject></g></g><g class="node default default flowchart-label" id="flowchart-Generate-65" transform="translate(1822.3166732788086, 294.75001525878906)"><rect class="basic label-container" style="" rx="0" ry="0" x="-78.21666717529297" y="-20.300003051757812" width="156.43333435058594" height="40.600006103515625"></rect><g class="label" style="" transform="translate(-70.71666717529297, -12.800003051757812)"><rect></rect><foreignObject width="141.43333435058594" height="25.600006103515625"><div style="display: inline-block; white-space: nowrap;" xmlns="http://www.w3.org/1999/xhtml"><span class="nodeLabel">POST /api/generate</span></div></foreignObject></g></g><g class="node default default flowchart-label" id="flowchart-Sites-54" transform="translate(447.09166717529297, 120.90000534057617)"><rect class="basic label-container" style="" rx="0" ry="0" x="-119.59166717529297" y="-33.099998474121094" width="239.18333435058594" height="66.19999694824219"></rect><g class="label" style="" transform="translate(-112.09166717529297, -25.599998474121094)"><rect></rect><foreignObject width="224.18333435058594" height="51.19999694824219"><div style="display: inline-block; white-space: nowrap;" xmlns="http://www.w3.org/1999/xhtml"><span class="nodeLabel">Teacher-approved capture sites<br/>(comma-separated allow-list)</span></div></foreignObject></g></g><g class="node default default flowchart-label" id="flowchart-Settings-55" transform="translate(151.25, 120.90000534057617)"><rect class="basic label-container" style="" rx="0" ry="0" x="-126.25" y="-33.099998474121094" width="252.5" height="66.19999694824219"></rect><g class="label" style="" transform="translate(-118.75, -25.599998474121094)"><rect></rect><foreignObject width="237.5" height="51.19999694824219"><div style="display: inline-block; white-space: nowrap;" xmlns="http://www.w3.org/1999/xhtml"><span class="nodeLabel">Extension options<br/>endpoint · class ID · capture sites</span></div></foreignObject></g></g><g class="node default default flowchart-label" id="flowchart-Summary-56" transform="translate(725.5833358764648, 120.90000534057617)"><rect class="basic label-container" style="" rx="0" ry="0" x="-108.9000015258789" y="-33.099998474121094" width="217.8000030517578" height="66.19999694824219"></rect><g class="label" style="" transform="translate(-101.4000015258789, -25.599998474121094)"><rect></rect><foreignObject width="202.8000030517578" height="51.19999694824219"><div style="display: inline-block; white-space: nowrap;" xmlns="http://www.w3.org/1999/xhtml"><span class="nodeLabel">Aggregate session summary<br/>timing + event shape only</span></div></foreignObject></g></g><g class="node default default flowchart-label" id="flowchart-Page-49" transform="translate(2348.4166717529297, 564.6500244140625)"><rect class="basic label-container" style="" rx="0" ry="0" x="-92.46666717529297" y="-20.300003051757812" width="184.93333435058594" height="40.600006103515625"></rect><g class="label" style="" transform="translate(-84.96666717529297, -12.800003051757812)"><rect></rect><foreignObject width="169.93333435058594" height="25.600006103515625"><div style="display: inline-block; white-space: nowrap;" xmlns="http://www.w3.org/1999/xhtml"><span class="nodeLabel">ColdOpen teacher page</span></div></foreignObject></g></g><g class="node default default flowchart-label" id="flowchart-Fixtures-51" transform="translate(2756.5750122070312, 581.0500259399414)"><rect class="basic label-container" style="" rx="0" ry="0" x="-88.41666412353516" y="-33.099998474121094" width="176.8333282470703" height="66.19999694824219"></rect><g class="label" style="" transform="translate(-80.91666412353516, -25.599998474121094)"><rect></rect><foreignObject width="161.8333282470703" height="51.19999694824219"><div style="display: inline-block; white-space: nowrap;" xmlns="http://www.w3.org/1999/xhtml"><span class="nodeLabel">Committed fixtures<br/>8AM class · 2PM class</span></div></foreignObject></g></g><g class="node default default flowchart-label" id="flowchart-Teacher-48" transform="translate(1822.3166732788086, 564.6500244140625)"><rect class="basic label-container" style="" rx="0" ry="0" x="-35.96666717529297" y="-20.300003051757812" width="71.93333435058594" height="40.600006103515625"></rect><g class="label" style="" transform="translate(-28.46666717529297, -12.800003051757812)"><rect></rect><foreignObject width="56.93333435058594" height="25.600006103515625"><div style="display: inline-block; white-space: nowrap;" xmlns="http://www.w3.org/1999/xhtml"><span class="nodeLabel">Teacher</span></div></foreignObject></g></g><g class="node default default flowchart-label" id="flowchart-Contracts-85" transform="translate(2348.4166717529297, 434.85002517700195)"><rect class="basic label-container" style="" rx="0" ry="0" x="-119.81666564941406" y="-33.099998474121094" width="239.63333129882812" height="66.19999694824219"></rect><g class="label" style="" transform="translate(-112.31666564941406, -25.599998474121094)"><rect></rect><foreignObject width="224.63333129882812" height="51.19999694824219"><div style="display: inline-block; white-space: nowrap;" xmlns="http://www.w3.org/1999/xhtml"><span class="nodeLabel">Shared Zod contracts<br/>privacy + input/output validation</span></div></foreignObject></g></g></g></g></g></svg>